<?xml version="1.0" encoding="UTF-8"?>
<svg version="1.1" viewBox="0 0 2048 964" width="728" height="343" xmlns="http://www.w3.org/2000/svg">
<path transform="translate(285,271)" d="m0 0 9 1 8 4 8 9 5 11v2l6-4 14-7h9l8 4 7 8 5 11 4 17v5l5-2h9l8 3 5 4 4 6 6-1 3-1h13l10 4 7 8 5 12 3 13 1 9v17l12-4h14l6 3 7 8 4 11 1 4 5-1h10l8 4 6 9 3 10v18l-5 20-7 20 19-19 10-5 5 1 3 4 1 10-3 14-8 20-11 23v11l2 13v18l-2 25-3 6-3 4h-5l-2-2v-44l-2-9v-17l4-13 8-18 7-14 3-10-7 6-9 11-11 13-12 16-14 18-11 14-11 12-6 5-4-3-1-6 6-12 14-20 16-24 10-19 11-26 5-20v-14l-5-9-3-2h-8l-2 22-5 22-5 16-8 18-9 16-11 16-9 12-12 14-7 8h-2l-1 3-8 7-13 10-6 4-5-1-4-5v-6h-2l-2 5-11 14-12 14-13 10-4 2h-6l-6-4-3-5v-18l-11 9-10 6-6 2h-7l-6-5-5 1-6 7-12 9-9 4-5-1-5-5-3-9-1-13 4-27 7-31 4-17-14 19-12 18-9 11-4 5-8 7-14 9-5 2h-12l-8-4-7-9-4-11-2-14v-32l5-43 9-42 8-29 11-32 10-24 18-39 8-14 8-12 11-14 11-12 7-7 11-7zm-5 19-10 4-10 9-9 9-12 17-14 25-12 25-8 19-9 24-9 28-8 32-6 31-3 23-1 13v22l3 21 2 2 1-1 3-22 7-26 11-31 19-48 12-29 13-29 11-22 14-24 11-16 9-12 8-10 11-13-4-10-6-8-6-3zm55 16-9 4-7 5 1 11v55h2l10-14 9-11 14-14-1-11-4-13-5-8-4-3zm-29 22-12 14-10 14-10 15-10 17-15 29-11 24-12 30-15 38-9 23-9 29-4 21v9l2 4 5-2 8-6 12-11 10-10 9-11 10-12 9-14 8-18 6-3 4-11 17-50 11-25 4-11 3-17 2-24v-26l-1-15zm65 22-1 1v13l5-2 8-7-2-4-2-1zm-16 10-12 13-10 13-11 18-8 16-7 23-9 27-8 19-7 14-7 24-15 61-4 19-1 9v10l2 4 6-1 11-9 7-8 2-33 6-35 7-28 7-24 13-36 11-24 11-22 12-20 6-9v-21zm51 2 1 13 1 10v40l-1 13 3-1 7-8 14-12 2-2v-19l-3-18-4-10-6-6zm-16 6-11 9-8 7-2 7-3 31-6 35-7 30-7 24-8 23-9 22-8 17-11 20-10 16-2 4 3 2 6-1 9-6 10-9 7-7 7-14 11-29 13-30 13-28 11-22 6-25 2-16v-29l-2-18-3-13zm-35 40-6 8-12 24-11 26-7 19-9 27-8 34-5 29-1 16 4-4 7-12 8-16 11-25 9-25 9-32 6-29 6-38zm101 13-8 4-1 1-4 31-5 23-1 7 4-4 7-11 10-13 12-14 7-8-4-10-6-6zm-25 15-8 7-12 13-9 14-5 10-12 36-8 20-13 28-10 18-5 8-6 20-1 13 4 1 9-7 10-11 14-19 12-19 8-15 15-36 9-27 6-25 4-26v-3zm46 20-11 12-10 14-12 19-12 20-12 22-13 28-5 13v2l4-1 12-11 16-16 13-17 11-18 9-17 6-16 5-24 1-10z" fill="#00A1A7"/>
<path transform="translate(884,377)" d="m0 0h26l18 4 14 7 9 7 8 7 11 15 6 13 4 17 1 9v9l-3 19-5 14-7 12-8 10-8 7-10 7-12 5-14 4-14 2-15-1-19-5-16-8-14-12-9-12-8-16-4-16-1-16 2-17 4-14 9-17 12-14 10-8 16-8 11-3zm5 32-12 3-9 5-9 8-6 9-4 9-2 12v12l4 16 6 11 9 9 8 5 9 3 5 1h19l13-4 10-6 8-8 5-8 4-13 1-7v-11l-2-11-4-10-6-9-10-9-12-5-9-2z" fill="#07A3EC"/>
<path transform="translate(611,341)" d="m0 0h1009l9 2 7 6 3 7v208l-2 8-7 7-8 2h-1017l-8-3-5-6-2-6v-209l2-7 5-5 5-3zm-2 6-7 2-5 5-1 2-1 155 1 56 4 6 4 2 18 1h989l14-1 6-4 2-6v-208l-4-7-3-2-13-1z" fill="#5B83EB"/>
<path transform="translate(1194,376)" d="m0 0 10 1 5 3 1 3 1 53 3-1 2-4 10-9 12-12 8-7 10-10 8-7 9-8 8-2h12l13 2 4 6-2 5-9 10-8 7-11 11-8 7-16 16 11 15 16 23 36 51 1 7-5 4-2 1h-24l-8-7-11-16-16-23-14-20-8-12-4 2-10 10h-2v2l-5 4-1 53-3 5-5 2h-19l-6-5v-154l5-5z" fill="#07A3EC"/>
<path transform="translate(1408,376)" d="m0 0h29l15 1 5 5 1 3v17l-4 7-13 15-9 11-14 17-11 13-9 11-11 13-9 11-7 8 1 1h73l10 2 3 5v17l-2 5-5 3h-120l-6-5-1-3v-15l3-7 11-13 9-11 11-13 8-10 28-34 13-16 4-5h-76l-7-3-2-2v-21l5-6z" fill="#07A3EC"/>
<path transform="translate(1553,376)" d="m0 0h22l24 1 4 4 1 4v17l-4 7-12 14-8 10-11 13-9 11-11 13-18 22-12 14-1 3h70l11 1 5 5v19l-3 5-4 2h-120l-6-5-1-3v-16l4-7 11-13 9-11 14-17 11-13 8-10 14-17 9-11 8-10-13 1h-64l-7-3-2-3v-20l5-6z" fill="#07A3EC"/>
<path transform="translate(1064,377)" d="m0 0h27l15 4 16 8 9 7 9 9 8 13 5 13-3 5-4 3h-21l-6-5-7-11-8-7-12-5-5-1h-16l-13 4-9 5-7 6-6 10-3 7-2 16 1 15 4 13 6 10 9 8 10 5 9 2h18l13-4 8-6 3-1 2-4 7-11 5-3h18l5 2 3 3v7l-7 14-8 11-8 8-10 7-15 7-12 3-8 1h-12l-14-2-15-5-11-6-12-11-8-9-8-15-5-17-1-7v-24l3-16 6-15 7-11 9-10 9-8 11-6 11-4z" fill="#07A3EC"/>
<path transform="translate(640,376)" d="m0 0h9l8 1 5 5 10 12 12 16 16 21 7 9h2l14-19 16-21 10-14 8-9 16-1 9 1 4 2 2 3v155l-4 4-4 1h-18l-6-3-1-2v-100l-6 5-10 13-22 28-6 6-5 1-8-7-14-19-10-13-16-21-12-16-16-21-4-7 1-5 5-4z" fill="#07A3EC"/>
<path transform="translate(634,485)" d="m0 0h18l6 3 2 4v43l-3 5-5 2h-19l-5-3-1-1-1-13v-33l2-4z" fill="#07A3EA"/>
</svg>
